#N canvas 196 243 693 460 12;
#X declare -path commonAbstract;
#X text 25 14 Bob Kammauff (kmw3kx) 2/24/26 Main - Exercise 3;
#X obj 137 272 osc~ 440;
#X obj 169 395 *~;
#X obj 233 51 r~ breath;
#X obj 233 99 clip~ 0 1;
#X obj 147 441 dac~ 1 2;
#X obj 522 272 lop~ 10;
#X obj 530 346 rmstodb~;
#X obj 522 296 *~ 100;
#X obj 530 370 -~ 100;
#X obj 530 394 scale~ 0 50 0 1;
#X obj 452 100 declare -path commonAbstract;
#X obj 491 177 breathPressure;
#X obj 269 138 threshold~ 0.19 0 0.19 0;
#X msg 433 165 0;
#X msg 270 164 1;
#X obj 313 209 tgl 19 0 empty empty empty 0 -10 0 12 #fcfcfc #000000 #000000 0 1;
#X obj 239 246 *~;
#X obj 18 62 MPR121;
#X obj 155 68 Encoder;
#N canvas 872 241 566 370 datatom 0;
#X obj 60 16 inlet;
#X obj 191 132 inlet;
#X text 109 19 valves touched;
#X text 244 133 octave;
#X obj 104 66 unpack f f f f;
#X floatatom 191 156 5 -4 4 0 - - - 0;
#X obj 60 40 t b l;
#X obj 46 102 expr $f1*-2 +$f2*-1 + $f3*-3 + $f4*-5;
#X floatatom 146 179 5 0 0 0 - - - 0;
#X obj 191 179 * 12;
#X obj 163 242 +;
#X obj 191 203 t b f;
#X floatatom 163 266 5 0 0 0 - - - 0;
#X obj 180 292 + 60;
#X obj 269 217 r transpose;
#X obj 180 316 outlet;
#X connect 0 0 6 0;
#X connect 1 0 5 0;
#X connect 4 0 7 0;
#X connect 4 1 7 1;
#X connect 4 2 7 2;
#X connect 4 3 7 3;
#X connect 5 0 9 0;
#X connect 6 0 7 0;
#X connect 6 1 4 0;
#X connect 7 0 8 0;
#X connect 8 0 10 0;
#X connect 9 0 11 0;
#X connect 10 0 12 0;
#X connect 11 0 10 0;
#X connect 11 1 10 1;
#X connect 12 0 13 0;
#X connect 13 0 15 0;
#X connect 14 0 13 1;
#X restore 80 112 pd datatom;
#X floatatom 80 136 5 0 0 0 - - - 0;
#X obj 80 159 mtof;
#X floatatom 101 185 5 0 0 0 - - - 0;
#X obj 284 403 output~;
#X obj 313 282 osc~ 440;
#X obj 221 332 loadbang;
#X obj 221 356 tgl 19 0 empty empty empty 0 -10 0 12 #fcfcfc #000000 #000000 0 1;
#X connect 1 0 2 0;
#X connect 2 0 5 0;
#X connect 2 0 5 1;
#X connect 3 0 4 0;
#X connect 4 0 13 0;
#X connect 4 0 17 0;
#X connect 6 0 8 0;
#X connect 7 0 9 0;
#X connect 8 0 7 0;
#X connect 9 0 10 0;
#X connect 13 0 15 0;
#X connect 13 1 14 0;
#X connect 14 0 16 0;
#X connect 15 0 16 0;
#X connect 16 0 17 1;
#X connect 18 0 20 0;
#X connect 19 0 20 1;
#X connect 20 0 21 0;
#X connect 21 0 22 0;
#X connect 22 0 1 0;
#X connect 22 0 23 0;
#X connect 26 0 27 0;
#X connect 27 0 2 1;
