#N canvas 595 377 693 460 12;
#X declare -path commonAbstract;
#X text 25 14 Bob Kammauff (kmw3kx) 2/24/26 Main - Exercise 3;
#X obj 98 65 osc~ 440;
#X obj 129 137 *~;
#X obj 233 51 r~ breath;
#X obj 233 99 clip~ 0 1;
#X obj 129 161 *~ 0.01;
#X obj 108 234 dac~ 1 2;
#X obj 233 123 lop~ 10;
#X obj 241 197 rmstodb~;
#X obj 233 147 *~ 100;
#X obj 241 221 -~ 100;
#X obj 241 245 scale~ 0 50 0 1;
#X obj 452 100 declare -path commonAbstract;
#X obj 313 172 breathPressure;
#X connect 1 0 2 0;
#X connect 2 0 5 0;
#X connect 3 0 4 0;
#X connect 4 0 7 0;
#X connect 5 0 6 0;
#X connect 5 0 6 1;
#X connect 7 0 9 0;
#X connect 8 0 10 0;
#X connect 9 0 8 0;
#X connect 10 0 11 0;
#X connect 11 0 2 1;
