#N canvas 595 377 450 300 12;
#X text 25 14 Bob Kammauff (kmw3kx) 2/24/26 Main - Exercise 3;
#X obj 98 65 osc~ 440;
#X obj 129 137 *~;
#X obj 233 51 r~ breath;
#X obj 233 75 scale~ 200 800 0 1;
#X obj 233 99 clip~ 0 1;
#X obj 129 161 *~ 0.01;
#X obj 108 234 dac~ 1 2;
#X connect 1 0 2 0;
#X connect 2 0 6 0;
#X connect 3 0 4 0;
#X connect 4 0 5 0;
#X connect 5 0 2 1;
#X connect 6 0 7 0;
#X connect 6 0 7 1;
