#N canvas 196 243 693 460 12;
#X declare -path commonAbstract;
#X text 25 14 Bob Kammauff (kmw3kx) 2/24/26 Main - Exercise 3;
#X obj 98 65 osc~ 440;
#X obj 129 137 *~;
#X obj 233 51 r~ breath;
#X obj 233 99 clip~ 0 1;
#X obj 129 161 *~ 0.01;
#X obj 108 234 dac~ 1 2;
#X obj 522 272 lop~ 10;
#X obj 530 346 rmstodb~;
#X obj 522 296 *~ 100;
#X obj 530 370 -~ 100;
#X obj 530 394 scale~ 0 50 0 1;
#X obj 452 100 declare -path commonAbstract;
#X obj 491 177 breathPressure;
#X obj 269 138 threshold~ 0.19 0 0.19 0;
#X msg 433 165 0;
#X msg 270 164 1;
#X obj 313 209 tgl 19 0 empty empty empty 0 -10 0 12 #fcfcfc #000000 #000000 0 1;
#X obj 239 246 *~;
#X obj 226 329 MPR121;
#X connect 1 0 2 0;
#X connect 2 0 5 0;
#X connect 3 0 4 0;
#X connect 4 0 14 0;
#X connect 4 0 18 0;
#X connect 5 0 6 0;
#X connect 5 0 6 1;
#X connect 7 0 9 0;
#X connect 8 0 10 0;
#X connect 9 0 8 0;
#X connect 10 0 11 0;
#X connect 14 0 16 0;
#X connect 14 1 15 0;
#X connect 15 0 17 0;
#X connect 16 0 17 0;
#X connect 17 0 18 1;
