#N canvas 793 486 550 411 12;
#X text 200 116 Bela A0;
#X text 51 31 Bob Kammauff (kmw3kx) 2/24/26 Pressure Sensor Reads Pressure Sensor & Print it to the console;
#X obj 150 150 s~ breath;
#X obj 46 217 print~;
#X obj 35 98 loadbang;
#X obj 27 166 metro 100;
#X obj 58 63 bng 19 250 50 0 empty empty empty 0 -10 0 12 #fcfcfc #000000 #000000;
#X obj 146 117 adc~ 3;
#X obj 35 122 tgl 19 0 empty empty empty 0 -10 0 12 #fcfcfc #000000 #000000 0 1;
#X obj 165 180 r~ breath;
#X obj 165 228 clip~ 0 1;
#X obj 201 267 threshold~ 0.19 0 0.19 0;
#X msg 365 294 0;
#X msg 202 293 1;
#X obj 245 338 tgl 19 0 empty empty empty 0 -10 0 12 #fcfcfc #000000 #000000 0 1;
#X obj 171 375 *~;
#X connect 4 0 8 0;
#X connect 5 0 3 0;
#X connect 6 0 8 0;
#X connect 7 0 2 0;
#X connect 8 0 5 0;
#X connect 9 0 10 0;
#X connect 9 0 3 0;
#X connect 10 0 11 0;
#X connect 10 0 15 0;
#X connect 11 0 13 0;
#X connect 11 1 12 0;
#X connect 12 0 14 0;
#X connect 13 0 14 0;
#X connect 14 0 15 1;
