#N canvas 803 244 876 703 12;
#X text 100 93 Bela A0;
#X text 44 5 Bob Kammauff (kmw3kx) 2/24/26 Pressure Sensor Reads Pressure Sensor & Print it to the console;
#X obj 164 163 s~ breath;
#X obj 35 98 loadbang;
#X obj 58 63 bng 19 250 50 0 empty empty empty 0 -10 0 12 #fcfcfc #000000 #000000;
#X obj 152 92 adc~ 3;
#X obj 35 122 tgl 19 0 empty empty empty 0 -10 0 12 #fcfcfc #000000 #000000 0 1;
#X obj 157 190 r~ breath;
#X obj 168 267 clip~ 0 1;
#X msg 637 277 0;
#X msg 502 288 1;
#X obj 520 342 tgl 19 0 empty empty empty 0 -10 0 12 #fcfcfc #000000 #000000 0 1;
#X obj 333 306 tgl 19 0 empty empty empty 0 -10 0 12 #fcfcfc #000000 #000000 0 1;
#X obj 473 250 threshold~ 0.1845 0 0.1845 0;
#X text 501 224 measured max was 0.1845;
#X obj 252 247 threshold~ 0.182 0 0.182 0;
#X text 273 222 measured min was 0.1824;
#X text -104 343 subtract from measured average: 0.1833;
#X obj 255 359 *~;
#X obj 412 389 *~;
#X text 318 200 Suck;
#X text 558 203 Blow;
#X obj 267 600 outlet~;
#X obj 439 599 outlet~;
#X obj 333 330 sig~;
#X obj 520 366 sig~;
#X obj 319 113 sig~;
#X floatatom 345 50 5 0 1000 0 - - - 0;
#X floatatom 378 105 5 0 0 0 - - - 0;
#X obj 345 80 / 1000;
#X obj 159 123 *~;
#X obj 443 111 spigot;
#X obj 224 71 tgl 19 0 empty empty empty 0 -10 0 12 #fcfcfc #000000 #000000 0 1;
#X obj 224 119 tgl 19 0 empty empty empty 0 -10 0 12 #fcfcfc #000000 #000000 0 1;
#X obj 224 95 == 0;
#X obj 236 39 loadbang;
#X obj 275 121 *~;
#X obj 27 166 metro 1000;
#X obj 83 545 snapshot~;
#X floatatom 83 569 12 0 0 0 - - - 0;
#X obj 83 592 print breathSnap;
#X obj 452 300 == 0;
#X obj 419 334 == 0;
#X obj 249 448 clip~ 0 1;
#X obj 425 448 clip~ 0 1;
#X obj 425 424 scale~ 0.1833 0.5 0 1;
#X obj 434 528 pow~ 0.7;
#X obj 187 321 -~ 0.1833;
#X msg 253 273 0;
#X msg 416 274 1;
#X obj 250 423 scale~ 0 -0.1833 0 1;
#X obj 261 533 pow~ 2;
#X connect 3 0 6 0;
#X connect 4 0 6 0;
#X connect 5 0 30 0;
#X connect 6 0 37 0;
#X connect 7 0 8 0;
#X connect 7 0 15 0;
#X connect 7 0 13 0;
#X connect 8 0 19 0;
#X connect 8 0 47 0;
#X connect 9 0 11 0;
#X connect 10 0 11 0;
#X connect 10 0 42 0;
#X connect 11 0 25 0;
#X connect 12 0 24 0;
#X connect 13 0 10 0;
#X connect 13 1 9 0;
#X connect 15 0 48 0;
#X connect 15 1 49 0;
#X connect 18 0 50 0;
#X connect 19 0 45 0;
#X connect 24 0 18 1;
#X connect 25 0 19 1;
#X connect 26 0 36 1;
#X connect 27 0 29 0;
#X connect 29 0 26 0;
#X connect 29 0 28 0;
#X connect 30 0 2 0;
#X connect 32 0 30 1;
#X connect 32 0 34 0;
#X connect 33 0 36 0;
#X connect 34 0 33 0;
#X connect 35 0 32 0;
#X connect 36 0 2 0;
#X connect 37 0 38 0;
#X connect 38 0 39 0;
#X connect 39 0 40 0;
#X connect 43 0 38 0;
#X connect 43 0 51 0;
#X connect 44 0 46 0;
#X connect 45 0 44 0;
#X connect 46 0 23 0;
#X connect 47 0 18 0;
#X connect 48 0 12 0;
#X connect 49 0 12 0;
#X connect 49 0 41 0;
#X connect 50 0 43 0;
#X connect 51 0 22 0;
