#N canvas 875 352 450 300 12;
#X obj 147 93 r encoder_pos;
#X obj 213 209 print encoder;
#X obj 150 132 clip -4 4;
#X obj 150 156 change;
#X obj 136 218 outlet;
#X connect 0 0 2 0;
#X connect 2 0 3 0;
#X connect 3 0 1 0;
#X connect 3 0 4 0;
