#N canvas 1126 296 450 300 12;
#X obj 102 24 bng 19 250 50 0 empty empty empty 0 -10 0 12 #fcfcfc #000000 #000000;
#X msg 32 72 dir;
#X obj 32 96 pdcontrol;
#X obj 40 163 makefilename open_git_here.bat "%s";
#X obj 40 187 pd~;
#X listbox 32 120 54 0 0 0 - - - 0;
#X connect 1 0 2 0;
#X connect 2 0 3 0;
#X connect 2 0 5 0;
#X connect 3 0 4 0;
