#N canvas 776 198 730 518 12;
#X text 39 22 Bob Kammauff (kmw3kx) MPR Capacitive Touch;
#X obj 62 84 r mpr121;
#X floatatom 62 108 5 0 0 0 - - - 0;
#X floatatom 73 189 5 0 0 0 - - - 0;
#X floatatom 125 190 5 0 0 0 - - - 0;
#X floatatom 171 189 5 0 0 0 - - - 0;
#X floatatom 224 190 5 0 0 0 - - - 0;
#X obj 73 165 & 2;
#X obj 125 166 & 4;
#X obj 171 165 & 8;
#X obj 224 166 & 16;
#X obj 76 222 tgl 19 0 empty empty empty 0 -10 0 12 #fcfcfc #000000 #000000 0 1;
#X obj 125 222 tgl 19 0 empty empty empty 0 -10 0 12 #fcfcfc #000000 #000000 0 1;
#X obj 171 212 tgl 19 0 empty empty empty 0 -10 0 12 #fcfcfc #000000 #000000 0 1;
#X obj 224 213 tgl 19 0 empty empty empty 0 -10 0 12 #fcfcfc #000000 #000000 0 1;
#X obj 58 306 pack f f f f;
#X obj 58 330 print;
#X connect 1 0 2 0;
#X connect 2 0 7 0;
#X connect 2 0 10 0;
#X connect 2 0 9 0;
#X connect 2 0 8 0;
#X connect 3 0 11 0;
#X connect 4 0 12 0;
#X connect 5 0 13 0;
#X connect 6 0 14 0;
#X connect 7 0 3 0;
#X connect 8 0 4 0;
#X connect 9 0 5 0;
#X connect 10 0 6 0;
#X connect 11 0 15 0;
#X connect 12 0 15 1;
#X connect 13 0 15 2;
#X connect 14 0 15 3;
#X connect 15 0 16 0;
