#N canvas 272 708 450 300 12;
#X obj 175 87 inlet~;
#X obj 297 94 inlet~;
#X text 118 88 suck;
#X text 258 95 blow;
#X text 11 91 pitch;
#X obj 158 339 outlet~;
#X obj 121 275 -~ 1;
#X obj 118 217 *~ 2;
#X text 51 31 Bob Kammauff (kmw3kx) 3/11/26 simple Sound abstraction for breath controller (sine & saw);
#X obj 60 87 inlet~;
#X obj 85 141 phasor~ 1;
#X obj 125 189 *~;
#X obj 219 238 *~;
#X obj 208 203 cos~;
#X connect 0 0 11 1;
#X connect 1 0 12 1;
#X connect 6 0 5 0;
#X connect 7 0 6 0;
#X connect 9 0 10 0;
#X connect 10 0 11 0;
#X connect 10 0 13 0;
#X connect 11 0 7 0;
#X connect 12 0 5 0;
#X connect 13 0 12 0;
